<svg id="Layer_1" data-name="Layer 1" xmlns="http://www.w3.org/2000/svg" viewBox="0 0 460 460"><defs><style>.cls-1{fill:#ef7b1b;}.cls-2{fill:#fff;}</style></defs><circle class="cls-1" cx="230" cy="230" r="230"/><path class="cls-2" d="M177.93,176.37v47.51H158.11V157.22h25.83q17,0,26.61,7.72Q222,174.17,222,190q0,15.13-9.77,24.71t-25.14,9.57q-1.81,0-5.91-.2V204.49h3.17q17.34,0,17.34-14.5,0-13.62-17-13.62Z" transform="translate(-90 -10)"/><path class="cls-2" d="M257,205.61v18.9a24.21,24.21,0,0,1-4.1.39,25,25,0,0,1-18.31-7.23,25.44,25.44,0,0,1,18.06-43.45q11.82,0,18.63,6.91T278.08,200v23.88H259.82V201.32a9.46,9.46,0,0,0-1.88-6.16,6.19,6.19,0,0,0-5.05-2.29,7.19,7.19,0,0,0-5.18,12.06,6.47,6.47,0,0,0,4.83,1.95A8.27,8.27,0,0,0,257,205.61Z" transform="translate(-90 -10)"/><path class="cls-2" d="M325.3,175.19l-22.76,50.59-22.46-50.59h17.43l5.18,13.14,5.66-13.14Z" transform="translate(-90 -10)"/><path class="cls-2" d="M345.51,175.19v48.69H327.25V175.19Zm-9.08-21.72a8.92,8.92,0,0,1,6.42,2.61A8.64,8.64,0,0,1,343,168.5a10,10,0,0,1-13.14,0,8.64,8.64,0,0,1,.15-12.42A9,9,0,0,1,336.43,153.47Z" transform="translate(-90 -10)"/><path class="cls-2" d="M386.24,157.22H404.5V197.8q0,11.19-5.86,18.21a24,24,0,0,1-8.57,6.45,26.08,26.08,0,0,1-29-4.93,24.2,24.2,0,0,1-7.47-18A24.49,24.49,0,0,1,361,181.74a23.86,23.86,0,0,1,17.58-7.52c1.07,0,2.7.09,4.88.29v20.12a7.29,7.29,0,0,0-4.49-1.76,6.56,6.56,0,0,0-4.86,2.07,6.94,6.94,0,0,0-2,5,6.55,6.55,0,0,0,2.1,4.86,7,7,0,0,0,5,2q7,0,7-9.71Z" transform="translate(-90 -10)"/><path class="cls-2" d="M427.15,182.37v-3.56a11.71,11.71,0,0,1-8-3.45,10.76,10.76,0,0,1-3.07-7.83,11.36,11.36,0,0,1,3.29-8.28,11,11,0,0,1,8.18-3.34,10.56,10.56,0,0,1,8,3.37,11.58,11.58,0,0,1,3.22,8.35,14.39,14.39,0,0,1-3.15,9.17A16.23,16.23,0,0,1,427.15,182.37Z" transform="translate(-90 -10)"/><path class="cls-2" d="M481.89,175.88v19.24q-3.86,0-5.3,1.44t-1.83,5.68q-1.27,14.12-10.94,19.93c-3.41,2-8.27,3-14.55,3h-2.54V205.86h.83q4.4,0,6.28-1.83c1.25-1.22,2-3.36,2.17-6.42q.39-7.47,1.39-10.5a15.31,15.31,0,0,1,4.08-6q5.37-5.22,14.89-5.22Z" transform="translate(-90 -10)"/><path class="cls-2" d="M213.36,292.31l20.75.53Q232.06,309,223,317.75t-23.75,8.78q-14.89,0-24.93-10t-10-24.78a33.91,33.91,0,0,1,10.23-25,34.39,34.39,0,0,1,25.22-10.16q14.75,0,24.61,10,6.82,6.87,9.67,19.18l-21.25,1.42q-3.56-10.94-13.52-10.94a13.74,13.74,0,0,0-10.47,4.4,15.65,15.65,0,0,0-4.13,11.18,15.11,15.11,0,0,0,4.05,10.82,13.56,13.56,0,0,0,10.26,4.27q6.3,0,10-3.76T213.36,292.31Z" transform="translate(-90 -10)"/><path class="cls-2" d="M265.22,275.17A24.12,24.12,0,0,1,283,282.61a25.27,25.27,0,0,1-.09,35.82,25.77,25.77,0,0,1-36.21,0,24.37,24.37,0,0,1-7.52-18,24.08,24.08,0,0,1,7.52-18A25.59,25.59,0,0,1,265.22,275.17Zm-.49,18a6.62,6.62,0,0,0-5,2.12,7.57,7.57,0,0,0,0,10.38,6.86,6.86,0,0,0,10,0,7.55,7.55,0,0,0,0-10.38A6.72,6.72,0,0,0,264.73,293.19Z" transform="translate(-90 -10)"/><path class="cls-2" d="M324.4,287v19.14h-8.16v18.75H298V283.52a27.18,27.18,0,0,1,2.39-11.92,24.94,24.94,0,0,1,9.2-10.27,23.38,23.38,0,0,1,12.87-4l2,0v19.14c-.43,0-.74,0-.93,0a6.52,6.52,0,0,0-5.35,2.29,10.09,10.09,0,0,0-1.88,6.54V287Z" transform="translate(-90 -10)"/><path class="cls-2" d="M358.82,287v19.14h-8.16v18.75H332.4V283.52a27,27,0,0,1,2.4-11.92,24.8,24.8,0,0,1,9.2-10.27,23.38,23.38,0,0,1,12.87-4l1.95,0v19.14c-.42,0-.73,0-.93,0a6.53,6.53,0,0,0-5.35,2.29,10.09,10.09,0,0,0-1.88,6.54V287Z" transform="translate(-90 -10)"/><path class="cls-2" d="M414.68,303.49H387a13.54,13.54,0,0,1-.63-3.86,13.39,13.39,0,0,1,.88-4.78h9.27c-.65-3.62-2.68-5.42-6.1-5.42a6.63,6.63,0,0,0-5.57,2.9,12.22,12.22,0,0,0-2.14,7.45,13,13,0,0,0,2.07,7.66,6.37,6.37,0,0,0,5.45,2.93,7.27,7.27,0,0,0,5.27-2.73l10.4,12.5a25.53,25.53,0,0,1-16.16,5.71,24.93,24.93,0,0,1-18.22-7.27,25.68,25.68,0,0,1,.08-36.09,25,25,0,0,1,18.28-7.37,24.59,24.59,0,0,1,25,24.95C414.87,300.79,414.81,301.93,414.68,303.49Z" transform="translate(-90 -10)"/><path class="cls-2" d="M470.1,303.49H442.41a13.54,13.54,0,0,1-.63-3.86,13.39,13.39,0,0,1,.88-4.78h9.27c-.65-3.62-2.68-5.42-6.1-5.42a6.63,6.63,0,0,0-5.57,2.9,12.22,12.22,0,0,0-2.14,7.45,13,13,0,0,0,2.07,7.66,6.37,6.37,0,0,0,5.45,2.93,7.27,7.27,0,0,0,5.27-2.73l10.4,12.5a25.53,25.53,0,0,1-16.16,5.71,24.93,24.93,0,0,1-18.22-7.27,25.68,25.68,0,0,1,.08-36.09,25,25,0,0,1,18.28-7.37,24.59,24.59,0,0,1,25,24.95C470.29,300.79,470.23,301.93,470.1,303.49Z" transform="translate(-90 -10)"/></svg>